<?xml version="1.0" encoding="UTF-8"?>
<!DOCTYPE svg PUBLIC "-//W3C//DTD SVG 1.1//EN" "http://www.w3.org/Graphics/SVG/1.1/DTD/svg11.dtd">
<!-- Creator: CorelDRAW 2019 (64-Bit) -->
<svg xmlns="http://www.w3.org/2000/svg" xml:space="preserve" width="120px" height="120px" version="1.1" style="shape-rendering:geometricPrecision; text-rendering:geometricPrecision; image-rendering:optimizeQuality; fill-rule:evenodd; clip-rule:evenodd"
viewBox="0 0 120 120"
 xmlns:xlink="http://www.w3.org/1999/xlink">
 <defs>
  <style type="text/css">
   <![CDATA[
    .fil0 {fill:#262425}
    .fil1 {fill:#F1CDB3}
   ]]>
  </style>
 </defs>
 <g id="Слой_x0020_1">
  <metadata id="CorelCorpID_0Corel-Layer"/>
  <rect class="fil0" width="120" height="120" rx="6" ry="6"/>
  <g id="_2419696188928">
   <g>
    <path id="Baidu" class="fil1" d="M39.22 48.7c0.53,7.57 -3.58,14.03 -9.18,14.43 -5.59,0.39 -10.56,-5.43 -11.09,-13.01 -0.53,-7.58 3.58,-14.04 9.17,-14.43 5.6,-0.39 10.57,5.43 11.1,13.01zm38.54 -31.4c-5.44,-1.39 -11.36,3.45 -13.23,10.81 -1.88,7.36 1.01,14.45 6.45,15.84 5.44,1.38 11.36,-3.46 13.23,-10.82 2.44,-9.58 -5.15,-15.5 -6.45,-15.83zm12.75 24.8c-5.72,0.09 -10.26,5.53 -10.13,13.95 0.12,8.43 4.85,12.27 10.58,12.18 5.71,-0.08 10.26,-4.06 10.13,-12.49 -0.17,-10.96 -9.21,-13.66 -10.58,-13.64zm-41.44 -26.66c-5.44,0 -9.85,6.1 -9.85,13.62 0,7.52 4.41,13.62 9.85,13.62 5.44,0 9.86,-6.1 9.86,-13.62 0,-7.52 -4.42,-13.62 -9.86,-13.62zm-1.26 42.3c-3.14,4.52 -6.71,8.92 -13.62,14.7 -6.92,5.77 -9.86,9.76 -9.86,15.64 0,5.88 3.36,15.64 12.89,15.64 9.54,0 14.16,-2.1 21.71,-2.1 7.54,0 12.58,2.94 22.12,2.94 9.54,0 13.52,-9.03 13.52,-14.91 0,-5.88 -1.66,-9.2 -9.3,-15.91 -4.9,-4.31 -9.05,-7.81 -15.55,-16.84 -3.21,-4.46 -6.92,-5.03 -10.79,-5.03 -3.88,-0.01 -7.97,1.36 -11.12,5.87z"/>
   </g>
   <g>
   </g>
   <g>
   </g>
   <g>
   </g>
   <g>
   </g>
   <g>
   </g>
   <g>
   </g>
   <g>
   </g>
   <g>
   </g>
   <g>
   </g>
   <g>
   </g>
   <g>
   </g>
   <g>
   </g>
   <g>
   </g>
   <g>
   </g>
   <g>
   </g>
  </g>
 </g>
</svg>
